<?xml version="1.0" encoding="UTF-8"?>
<svg id="_レイヤー_1" data-name="レイヤー_1" xmlns="http://www.w3.org/2000/svg" version="1.1" viewBox="0 0 128 128">
  <!-- Generator: Adobe Illustrator 30.2.1, SVG Export Plug-In . SVG Version: 2.1.1 Build 1)  -->
  <path d="M71.19,14.39v-2.43c0-.79.64-1.42,1.42-1.42h5.44V0h-28.11v10.54h5.44c.79,0,1.42.64,1.42,1.42v2.43c0,.71-.52,1.3-1.22,1.4C27.51,20.01,6.13,44.98,7.65,74.54c1.48,28.75,24.83,52.01,53.59,53.39,32.36,1.55,59.19-24.33,59.19-56.36,0-28.25-20.88-51.71-48.02-55.78-.7-.1-1.22-.69-1.22-1.4ZM64,121.12c-27.32,0-49.55-22.23-49.55-49.55S36.68,22.03,64,22.03s49.55,22.23,49.55,49.55-22.23,49.55-49.55,49.55Z"/>
  <path d="M83.35,86.13h-39.82l12.27-12.73c3.24-3.37,5.77-6.22,7.61-8.56,1.84-2.34,3.2-4.32,4.1-5.94.9-1.62,1.45-2.93,1.67-3.94.22-1.01.33-1.86.33-2.56,0-.74-.12-1.46-.36-2.16-.24-.7-.6-1.32-1.08-1.87-.48-.55-1.06-.98-1.74-1.31-.68-.33-1.48-.49-2.39-.49-1.75,0-3.12.57-4.1,1.71-.98,1.14-1.48,2.56-1.48,4.26,0,.48.07,1.18.2,2.1h-14.04c0-2.89.47-5.51,1.41-7.87.94-2.36,2.26-4.39,3.97-6.1,1.71-1.71,3.73-3.02,6.07-3.94,2.34-.92,4.91-1.38,7.71-1.38s5.3.44,7.64,1.31c2.34.88,4.36,2.1,6.07,3.67,1.71,1.57,3.04,3.44,4,5.61.96,2.16,1.44,4.52,1.44,7.05,0,2.71-.58,5.22-1.74,7.51-1.16,2.3-3.01,4.65-5.54,7.05l-8.2,7.68h16.01v10.89Z"/>
  <g>
    <path d="M41.33,96.77h4.47v1.55c1.22-1.17,2.58-1.75,4.1-1.75,1.88,0,3.31.79,4.29,2.37,1-1.6,2.44-2.39,4.29-2.39.59,0,1.15.09,1.68.26s.98.44,1.36.81.68.85.9,1.44c.22.59.33,1.31.33,2.15v8.22h-4.47v-6.25c0-.64-.05-1.17-.14-1.58-.09-.41-.22-.73-.39-.96s-.37-.39-.6-.47c-.23-.08-.48-.12-.74-.12-1.43,0-2.15,1.05-2.15,3.13v6.25h-4.47v-6.25c0-.64-.04-1.17-.12-1.59s-.2-.75-.36-1c-.16-.25-.36-.41-.6-.51-.25-.09-.53-.14-.86-.14-.28,0-.54.04-.79.12-.25.08-.46.24-.65.48-.19.24-.34.57-.44.99s-.16.97-.16,1.64v6.25h-4.47v-12.66Z"/>
    <path d="M65.52,91.91c0-.35.07-.67.2-.97.13-.3.31-.57.54-.8s.5-.41.8-.54c.3-.13.63-.2.97-.2s.67.07.97.2c.3.13.57.31.8.54.23.23.41.5.54.8s.2.63.2.97-.07.67-.2.97-.31.57-.54.8c-.23.23-.5.41-.8.54-.3.13-.63.2-.97.2s-.67-.07-.97-.2c-.3-.13-.57-.31-.8-.54s-.41-.5-.54-.8c-.13-.3-.2-.63-.2-.97ZM70.28,96.77v12.66h-4.47v-12.66h4.47Z"/>
    <path d="M73.34,96.77h4.47v1.6c.61-.74,1.23-1.24,1.85-1.49.62-.25,1.36-.38,2.2-.38.89,0,1.65.14,2.28.43.63.29,1.17.7,1.62,1.22.36.43.61.91.74,1.43s.2,1.13.2,1.8v8.05h-4.47v-6.39c0-.63-.05-1.13-.14-1.52-.09-.39-.25-.69-.48-.93-.2-.2-.42-.34-.67-.42-.25-.08-.51-.12-.79-.12-.76,0-1.34.23-1.74.68s-.6,1.1-.6,1.94v6.76h-4.47v-12.66Z"/>
  </g>
</svg>