<?xml version="1.0" encoding="UTF-8"?>
<svg id="_レイヤー_1" xmlns="http://www.w3.org/2000/svg" version="1.1" viewBox="0 0 128 128">
  <!-- Generator: Adobe Illustrator 30.2.1, SVG Export Plug-In . SVG Version: 2.1.1 Build 1)  -->
  <path d="M58.18,57.02c-.13-.02-.25-.04-.38-.06-.59,1.98-1.19,3.96-1.77,5.95q-1.14,3.84,3.77,3.55c.71-.04,1.15-.12.93-.82-.87-2.87-1.7-5.75-2.55-8.62Z"/>
  <path d="M114.04,64.66c-3.24,0-5.98,2.04-7.09,4.84-3.02,0-6.05,0-9.07,0-3.67,0-7.34,0-11.02,0v-11.3c3.49,0,6.99,0,10.48,0,3.02,0,6.05,0,9.07,0,1.11,2.8,3.85,4.84,7.09,4.84,4.27,0,7.53-3.4,7.67-7.35.16-4.38-3.29-7.95-7.63-7.96-3.31,0-6.03,2.04-7.13,4.84-6.52,0-13.04,0-19.55,0v-3.46c3.9,0,7.79,0,11.69,0,.03,0,.05,0,.08,0,.04,0,.08,0,.11,0,.06,0,.11-.02.15-.03.01,0,.03,0,.04,0,.32-.09.47-.32.5-.7,0-.08.01-.17.01-.27-.01-.93-.02-1.86-.02-2.78,0-.19,0-.39.01-.58,0-.11,0-.21-.01-.31,0-.89,0-1.77,0-2.66,0-.73,0-1.45,0-2.18,2.69-.97,4.55-3.51,4.66-6.36.15-4.04-3.03-7.33-7.04-7.34-4.01,0-7.09,3.24-7.06,7.05-.04,2.8,1.64,5.28,4.08,6.41,0,1.47,0,2.93,0,4.4-.66,0-1.32,0-1.98,0-1.75,0-3.5,0-5.24,0v-2.42h-6.08c0-3.38,0-6.77,0-10.15,1.87-.91,3.14-2.79,3.22-4.89.12-3.25-2.44-5.91-5.67-5.91-3.23,0-5.71,2.61-5.69,5.68-.03,2.23,1.29,4.2,3.22,5.13,0,1.72,0,3.44,0,5.16,0,1.66,0,3.32,0,4.98h-7.62c0-6.98,0-13.96,0-20.94,3.86-1.53,6.51-5.25,6.66-9.4C75.12,4.94,70.36,0,64.37,0c-6.01,0-10.61,4.86-10.57,10.55-.06,4.4,2.72,8.27,6.67,9.84,0,2.47,0,4.93,0,7.4,0,4.51,0,9.03,0,13.54h-7.63c0-3.38,0-6.77,0-10.15,1.87-.91,3.14-2.79,3.22-4.89.12-3.25-2.44-5.91-5.67-5.91-3.23,0-5.71,2.61-5.69,5.68-.03,2.23,1.29,4.2,3.22,5.13,0,1.72,0,3.44,0,5.16,0,1.66,0,3.32,0,4.98h-6.08v2.42c-1.98.01-3.96,0-5.94,0-.66,0-1.32,0-1.98,0,0-1.47,0-2.93,0-4.4,2.44-1.13,4.12-3.62,4.08-6.41.03-3.8-3.05-7.05-7.06-7.05-4.01,0-7.18,3.3-7.04,7.34.1,2.85,1.96,5.39,4.66,6.36,0,.73,0,1.45,0,2.18,0,.89,0,1.77,0,2.66-.01.09-.02.19-.01.31,0,.19.01.39.01.58,0,.93,0,1.86-.02,2.78,0,.1,0,.18.01.27.03.38.18.61.5.7.01,0,.03,0,.04,0,.05.01.1.02.15.03.04,0,.08,0,.11,0,.03,0,.05,0,.08,0,4.13,0,8.26,0,12.39,0v3.46c-.09,0-.18,0-.27,0-6.66,0-13.32,0-19.98,0-1.1-2.8-3.82-4.84-7.13-4.84-4.35,0-7.79,3.58-7.63,7.96.14,3.95,3.4,7.36,7.67,7.35,3.24,0,5.98-2.04,7.09-4.84,3.02,0,6.05,0,9.07,0,3.73,0,7.46,0,11.19,0v11.31c-.11,0-.22,0-.35,0-3.79,0-7.58,0-11.37,0-3.02,0-6.05,0-9.07,0-1.11-2.8-3.85-4.84-7.09-4.84-4.27,0-7.53,3.4-7.67,7.35-.16,4.38,3.29,7.95,7.63,7.96,3.31,0,6.03-2.04,7.13-4.84,6.66,0,13.32,0,19.98,0,.27,0,.54,0,.81-.02v3.48s-.05,0-.08,0c-4.28.01-8.57.01-12.85,0-.03,0-.05,0-.08,0-.04,0-.08,0-.11,0-.06,0-.11.02-.15.03-.01,0-.03,0-.04,0-.32.09-.47.32-.5.7,0,.08-.01.17-.01.27.01.93.02,1.86.02,2.78,0,.19,0,.39-.01.58,0,.11,0,.21.01.31,0,.89,0,1.77,0,2.66,0,.73,0,1.45,0,2.18-2.69.97-4.55,3.51-4.66,6.36-.15,4.04,3.03,7.33,7.04,7.34,4.01,0,7.09-3.24,7.06-7.05.04-2.8-1.64-5.28-4.08-6.41,0-1.47,0-2.93,0-4.4.66,0,1.32,0,1.98,0,2.14,0,4.28-.01,6.42,0,.02,0,.03,0,.05,0v2.4h6.08c0,1.77,0,3.53,0,5.3,0,1.72,0,3.44,0,5.16-1.93.93-3.25,2.91-3.22,5.13-.02,3.07,2.45,5.69,5.69,5.68,3.23,0,5.79-2.66,5.67-5.91-.08-2.1-1.34-3.99-3.22-4.89,0-3.49,0-6.98,0-10.46h7.63c0,4.62,0,9.24,0,13.86,0,2.47,0,4.93,0,7.4-3.95,1.57-6.73,5.44-6.67,9.84-.04,5.7,4.56,10.56,10.57,10.55,6,0,10.75-4.94,10.54-10.98-.15-4.15-2.8-7.87-6.66-9.4,0-7.09,0-14.17,0-21.26h7.62c0,1.77,0,3.53,0,5.3,0,1.72,0,3.44,0,5.16-1.93.93-3.25,2.91-3.22,5.13-.02,3.07,2.45,5.69,5.69,5.68,3.23,0,5.79-2.66,5.67-5.91-.08-2.1-1.34-3.99-3.22-4.89,0-3.49,0-6.98,0-10.46h6.08v-2.4c1.93-.01,3.85,0,5.78,0,.66,0,1.32,0,1.98,0,0,1.47,0,2.93,0,4.4-2.44,1.13-4.12,3.62-4.08,6.41-.03,3.8,3.05,7.05,7.06,7.05,4.01,0,7.18-3.3,7.04-7.34-.1-2.85-1.96-5.39-4.66-6.36,0-.73,0-1.45,0-2.18,0-.89,0-1.77,0-2.66.01-.09.02-.19.01-.31,0-.19-.01-.39-.01-.58,0-.93,0-1.86.02-2.78,0-.1,0-.18-.01-.27-.03-.38-.18-.61-.5-.7-.01,0-.03,0-.04,0-.05-.01-.1-.02-.15-.03-.04,0-.08,0-.11,0-.03,0-.05,0-.08,0-4.08,0-8.15,0-12.23,0v-3.46s.07,0,.1,0c6.66,0,13.32,0,19.98,0,1.1,2.8,3.82,4.84,7.13,4.84,4.35,0,7.79-3.58,7.63-7.96-.14-3.95-3.4-7.36-7.67-7.35ZM68.82,77.11c-1.09.05-2.19.04-3.28,0-1.58-.04-2.41-.71-2.84-2.21q-.83-2.93-3.89-2.93c-1.14,0-2.28.02-3.41,0-.64-.02-1,.21-1.07.86,0,.09-.04.17-.06.25-1,3.88-3.04,5.06-6.91,3.99-.96-.27-1.35-1.05-.99-2.19.74-2.33,1.52-4.65,2.29-6.98,1.54-4.65,3.07-9.29,4.61-13.94,1.17-3.52,1.41-3.7,5.13-3.7.53,0,1.05,0,1.58,0,1.42.04,2.45.69,2.9,2.05,2.51,7.55,5.01,15.1,7.48,22.66.41,1.25-.2,2.07-1.51,2.13ZM82.46,74.89c0,1.4-.83,2.17-2.23,2.22-1.09.04-2.19.03-3.28,0-1.8-.03-2.57-.77-2.57-2.55-.02-3.62,0-7.25,0-10.87,0-3.58,0-7.16,0-10.74,0-1.97.73-2.68,2.7-2.7,1.05-.01,2.1-.03,3.15.01,1.42.06,2.23.81,2.24,2.22.03,7.47.03,14.93,0,22.4Z"/>
</svg>