<?xml version="1.0" encoding="UTF-8"?>
<svg id="_レイヤー_1" data-name="レイヤー_1" xmlns="http://www.w3.org/2000/svg" xmlns:xlink="http://www.w3.org/1999/xlink" version="1.1" viewBox="0 0 105 105">
  <!-- Generator: Adobe Illustrator 30.0.0, SVG Export Plug-In . SVG Version: 2.1.1 Build 123)  -->
  <defs>
    <clipPath id="clippath">
      <rect width="105" height="105" fill="none"/>
    </clipPath>
  </defs>
  <g clip-path="url(#clippath)">
    <g>
      <circle cx="105" cy="-26.25" r="52.5" fill="#f5f1e6"/>
      <path d="M157.5-26.25c0-29.02-23.48-52.5-52.5-52.5s-52.5,23.48-52.5,52.5,23.48,52.5,52.5,52.5,52.5-23.48,52.5-52.5ZM105,19.69c-25.39,0-45.94-20.55-45.94-45.94s20.55-45.94,45.94-45.94,45.94,20.55,45.94,45.94-20.55,45.94-45.94,45.94ZM144.37-26.25c0-21.76-17.61-39.37-39.37-39.37s-39.37,17.61-39.37,39.37S83.24,13.12,105,13.12s39.37-17.61,39.37-39.37ZM105,6.56c-18.14,0-32.81-14.68-32.81-32.81s14.68-32.81,32.81-32.81,32.81,14.68,32.81,32.81S123.14,6.56,105,6.56ZM131.25-26.25c0-14.51-11.74-26.25-26.25-26.25s-26.25,11.74-26.25,26.25S90.49,0,105,0s26.25-11.74,26.25-26.25ZM105-6.56c-10.88,0-19.69-8.81-19.69-19.69s8.81-19.69,19.69-19.69,19.69,8.81,19.69,19.69-8.81,19.69-19.69,19.69ZM118.12-26.25c0-7.25-5.87-13.12-13.12-13.12s-13.12,5.87-13.12,13.12,5.87,13.12,13.12,13.12,13.12-5.87,13.12-13.12ZM105-19.69c-3.63,0-6.56-2.94-6.56-6.56s2.94-6.56,6.56-6.56,6.56,2.94,6.56,6.56-2.94,6.56-6.56,6.56Z" fill="#e1d191"/>
    </g>
    <g>
      <circle cx="0" cy="-26.25" r="52.5" transform="translate(26.25 -25.79) rotate(-89.01)" fill="#f5f1e6"/>
      <path d="M52.5-26.25C52.5-55.27,29.02-78.75,0-78.75s-52.5,23.48-52.5,52.5S-29.02,26.25,0,26.25,52.5,2.77,52.5-26.25ZM0,19.69C-25.39,19.69-45.94-.86-45.94-26.25S-25.39-72.19,0-72.19s45.94,20.55,45.94,45.94S25.39,19.69,0,19.69ZM39.37-26.25C39.37-48.01,21.76-65.63,0-65.63s-39.37,17.61-39.37,39.37S-21.76,13.12,0,13.12,39.37-4.49,39.37-26.25ZM0,6.56c-18.14,0-32.81-14.68-32.81-32.81S-18.14-59.06,0-59.06s32.81,14.68,32.81,32.81S18.14,6.56,0,6.56ZM26.25-26.25C26.25-40.76,14.51-52.5,0-52.5s-26.25,11.74-26.25,26.25S-14.51,0,0,0s26.25-11.74,26.25-26.25ZM0-6.56c-10.88,0-19.69-8.81-19.69-19.69S-10.88-45.94,0-45.94s19.69,8.81,19.69,19.69S10.88-6.56,0-6.56ZM13.12-26.25C13.12-33.5,7.25-39.38,0-39.38s-13.12,5.87-13.12,13.12S-7.25-13.13,0-13.13s13.12-5.87,13.12-13.12ZM0-19.69c-3.63,0-6.56-2.94-6.56-6.56S-3.63-32.81,0-32.81s6.56,2.94,6.56,6.56S3.63-19.69,0-19.69Z" fill="#e1d191"/>
    </g>
    <g>
      <circle cx="52.5" cy="0" r="52.5" transform="translate(15.38 37.12) rotate(-45)" fill="#f5f1e6"/>
      <path d="M105,0c0-29.02-23.48-52.5-52.5-52.5S0-29.02,0,0s23.48,52.5,52.5,52.5S105,29.02,105,0ZM52.5,45.94C27.11,45.94,6.56,25.39,6.56,0s20.55-45.94,45.94-45.94S98.44-25.39,98.44,0s-20.55,45.94-45.94,45.94ZM91.87,0c0-21.76-17.61-39.37-39.37-39.37S13.12-21.76,13.12,0s17.61,39.38,39.38,39.38S91.87,21.76,91.87,0ZM52.5,32.81C34.36,32.81,19.69,18.14,19.69,0s14.68-32.81,32.81-32.81S85.31-18.14,85.31,0s-14.68,32.81-32.81,32.81ZM78.75,0c0-14.51-11.74-26.25-26.25-26.25S26.25-14.51,26.25,0s11.74,26.25,26.25,26.25S78.75,14.51,78.75,0ZM52.5,19.69C41.62,19.69,32.81,10.88,32.81,0s8.81-19.69,19.69-19.69S72.19-10.88,72.19,0s-8.81,19.69-19.69,19.69ZM65.62,0c0-7.25-5.87-13.12-13.12-13.12S39.37-7.25,39.37,0s5.87,13.13,13.12,13.13S65.62,7.25,65.62,0ZM52.5,6.56C48.87,6.56,45.94,3.63,45.94,0s2.94-6.56,6.56-6.56S59.06-3.63,59.06,0s-2.94,6.56-6.56,6.56Z" fill="#e1d191"/>
    </g>
    <g>
      <circle cx="105" cy="26.25" r="52.5" transform="translate(-2.05 42.18) rotate(-22.5)" fill="#f5f1e6"/>
      <path d="M157.5,26.25c0-29.02-23.48-52.5-52.5-52.5S52.5-2.77,52.5,26.25s23.48,52.5,52.5,52.5,52.5-23.48,52.5-52.5ZM105,72.19c-25.39,0-45.94-20.55-45.94-45.94s20.55-45.94,45.94-45.94S150.94.86,150.94,26.25s-20.55,45.94-45.94,45.94ZM144.37,26.25c0-21.76-17.61-39.38-39.37-39.38S65.62,4.49,65.62,26.25s17.61,39.37,39.37,39.37,39.37-17.61,39.37-39.37ZM105,59.06c-18.14,0-32.81-14.68-32.81-32.81S86.86-6.56,105-6.56s32.81,14.68,32.81,32.81-14.68,32.81-32.81,32.81ZM131.25,26.25c0-14.51-11.74-26.25-26.25-26.25s-26.25,11.74-26.25,26.25,11.74,26.25,26.25,26.25,26.25-11.74,26.25-26.25ZM105,45.94c-10.88,0-19.69-8.81-19.69-19.69s8.81-19.69,19.69-19.69,19.69,8.81,19.69,19.69-8.81,19.69-19.69,19.69ZM118.12,26.25c0-7.25-5.87-13.12-13.12-13.12s-13.12,5.87-13.12,13.12,5.87,13.12,13.12,13.12,13.12-5.87,13.12-13.12ZM105,32.81c-3.63,0-6.56-2.94-6.56-6.56s2.94-6.56,6.56-6.56,6.56,2.94,6.56,6.56-2.94,6.56-6.56,6.56Z" fill="#e1d191"/>
    </g>
    <g>
      <circle cx="0" cy="26.25" r="52.5" transform="translate(-18.56 7.69) rotate(-45)" fill="#f5f1e6"/>
      <path d="M52.5,26.25C52.5-2.77,29.02-26.25,0-26.25S-52.5-2.77-52.5,26.25-29.02,78.75,0,78.75s52.5-23.48,52.5-52.5ZM0,72.19c-25.39,0-45.94-20.55-45.94-45.94S-25.39-19.69,0-19.69,45.94.86,45.94,26.25,25.39,72.19,0,72.19ZM39.37,26.25C39.37,4.49,21.76-13.13,0-13.13S-39.38,4.49-39.38,26.25-21.76,65.62,0,65.62s39.38-17.61,39.38-39.37ZM0,59.06c-18.14,0-32.81-14.68-32.81-32.81S-18.14-6.56,0-6.56,32.81,8.11,32.81,26.25,18.14,59.06,0,59.06ZM26.25,26.25C26.25,11.74,14.51,0,0,0s-26.25,11.74-26.25,26.25S-14.51,52.5,0,52.5s26.25-11.74,26.25-26.25ZM0,45.94c-10.88,0-19.69-8.81-19.69-19.69S-10.88,6.56,0,6.56s19.69,8.81,19.69,19.69S10.88,45.94,0,45.94ZM13.12,26.25C13.12,19,7.25,13.12,0,13.12s-13.12,5.87-13.12,13.12S-7.25,39.37,0,39.37s13.12-5.87,13.12-13.12ZM0,32.81c-3.63,0-6.56-2.94-6.56-6.56S-3.63,19.69,0,19.69s6.56,2.94,6.56,6.56S3.63,32.81,0,32.81Z" fill="#e1d191"/>
    </g>
    <g>
      <circle cx="52.5" cy="52.5" r="52.5" transform="translate(-.17 104.83) rotate(-89.81)" fill="#f5f1e6"/>
      <path d="M105,52.5C105,23.48,81.52,0,52.5,0S0,23.48,0,52.5s23.48,52.5,52.5,52.5,52.5-23.48,52.5-52.5ZM52.5,98.44c-25.39,0-45.94-20.55-45.94-45.94S27.11,6.56,52.5,6.56s45.94,20.55,45.94,45.94-20.55,45.94-45.94,45.94ZM91.87,52.5c0-21.76-17.61-39.37-39.37-39.37S13.12,30.74,13.12,52.5s17.61,39.37,39.38,39.37,39.37-17.61,39.37-39.37ZM52.5,85.31c-18.14,0-32.81-14.68-32.81-32.81s14.68-32.81,32.81-32.81,32.81,14.68,32.81,32.81-14.68,32.81-32.81,32.81ZM78.75,52.5c0-14.51-11.74-26.25-26.25-26.25s-26.25,11.74-26.25,26.25,11.74,26.25,26.25,26.25,26.25-11.74,26.25-26.25ZM52.5,72.19c-10.88,0-19.69-8.81-19.69-19.69s8.81-19.69,19.69-19.69,19.69,8.81,19.69,19.69-8.81,19.69-19.69,19.69ZM65.62,52.5c0-7.25-5.87-13.12-13.12-13.12s-13.12,5.87-13.12,13.12,5.87,13.12,13.12,13.12,13.12-5.87,13.12-13.12ZM52.5,59.06c-3.63,0-6.56-2.94-6.56-6.56s2.94-6.56,6.56-6.56,6.56,2.94,6.56,6.56-2.94,6.56-6.56,6.56Z" fill="#e1d191"/>
    </g>
    <g>
      <circle cx="105" cy="78.75" r="52.5" fill="#f5f1e6"/>
      <path d="M157.5,78.75c0-29.02-23.48-52.5-52.5-52.5s-52.5,23.48-52.5,52.5,23.48,52.5,52.5,52.5,52.5-23.48,52.5-52.5ZM105,124.69c-25.39,0-45.94-20.55-45.94-45.94s20.55-45.94,45.94-45.94,45.94,20.55,45.94,45.94-20.55,45.94-45.94,45.94ZM144.37,78.75c0-21.76-17.61-39.37-39.37-39.37s-39.37,17.61-39.37,39.37,17.61,39.37,39.37,39.37,39.37-17.61,39.37-39.37ZM105,111.56c-18.14,0-32.81-14.68-32.81-32.81s14.68-32.81,32.81-32.81,32.81,14.68,32.81,32.81-14.68,32.81-32.81,32.81ZM131.25,78.75c0-14.51-11.74-26.25-26.25-26.25s-26.25,11.74-26.25,26.25,11.74,26.25,26.25,26.25,26.25-11.74,26.25-26.25ZM105,98.44c-10.88,0-19.69-8.81-19.69-19.69s8.81-19.69,19.69-19.69,19.69,8.81,19.69,19.69-8.81,19.69-19.69,19.69ZM118.12,78.75c0-7.25-5.87-13.12-13.12-13.12s-13.12,5.87-13.12,13.12,5.87,13.12,13.12,13.12,13.12-5.87,13.12-13.12ZM105,85.31c-3.63,0-6.56-2.94-6.56-6.56s2.94-6.56,6.56-6.56,6.56,2.94,6.56,6.56-2.94,6.56-6.56,6.56Z" fill="#e1d191"/>
    </g>
    <g>
      <circle cx="0" cy="78.75" r="52.5" transform="translate(-78.75 78.26) rotate(-89.64)" fill="#f5f1e6"/>
      <path d="M52.5,78.75C52.5,49.73,29.02,26.25,0,26.25s-52.5,23.48-52.5,52.5S-29.02,131.25,0,131.25s52.5-23.48,52.5-52.5ZM0,124.69c-25.39,0-45.94-20.55-45.94-45.94S-25.39,32.81,0,32.81s45.94,20.55,45.94,45.94S25.39,124.69,0,124.69ZM39.37,78.75C39.37,56.99,21.76,39.37,0,39.37s-39.37,17.61-39.37,39.37S-21.76,118.12,0,118.12s39.38-17.61,39.38-39.37ZM0,111.56c-18.14,0-32.81-14.68-32.81-32.81S-18.14,45.94,0,45.94s32.81,14.68,32.81,32.81S18.14,111.56,0,111.56ZM26.25,78.75C26.25,64.24,14.51,52.5,0,52.5s-26.25,11.74-26.25,26.25S-14.51,105,0,105s26.25-11.74,26.25-26.25ZM0,98.44c-10.88,0-19.69-8.81-19.69-19.69S-10.88,59.06,0,59.06s19.69,8.81,19.69,19.69S10.88,98.44,0,98.44ZM13.12,78.75C13.12,71.5,7.25,65.62,0,65.62s-13.12,5.87-13.12,13.12S-7.25,91.87,0,91.87s13.12-5.87,13.12-13.12ZM0,85.31c-3.63,0-6.56-2.94-6.56-6.56S-3.63,72.19,0,72.19s6.56,2.94,6.56,6.56S3.63,85.31,0,85.31Z" fill="#e1d191"/>
    </g>
    <g>
      <circle cx="52.5" cy="105" r="52.5" transform="translate(-58.87 67.88) rotate(-45)" fill="#f5f1e6"/>
      <path d="M105,105c0-29.02-23.48-52.5-52.5-52.5S0,75.98,0,105s23.48,52.5,52.5,52.5,52.5-23.48,52.5-52.5ZM52.5,150.94c-25.39,0-45.94-20.55-45.94-45.94s20.55-45.94,45.94-45.94,45.94,20.55,45.94,45.94-20.55,45.94-45.94,45.94ZM91.87,105c0-21.76-17.61-39.37-39.37-39.37S13.12,83.24,13.12,105s17.61,39.38,39.38,39.38,39.37-17.61,39.37-39.38ZM52.5,137.81c-18.14,0-32.81-14.68-32.81-32.81s14.68-32.81,32.81-32.81,32.81,14.68,32.81,32.81-14.68,32.81-32.81,32.81ZM78.75,105c0-14.51-11.74-26.25-26.25-26.25s-26.25,11.74-26.25,26.25,11.74,26.25,26.25,26.25,26.25-11.74,26.25-26.25ZM52.5,124.69c-10.88,0-19.69-8.81-19.69-19.69s8.81-19.69,19.69-19.69,19.69,8.81,19.69,19.69-8.81,19.69-19.69,19.69ZM65.62,105c0-7.25-5.87-13.12-13.12-13.12s-13.12,5.87-13.12,13.12,5.87,13.13,13.12,13.13,13.12-5.87,13.12-13.13ZM52.5,111.56c-3.63,0-6.56-2.94-6.56-6.56s2.94-6.56,6.56-6.56,6.56,2.94,6.56,6.56-2.94,6.56-6.56,6.56Z" fill="#e1d191"/>
    </g>
    <g>
      <circle cx="105" cy="131.25" r="52.5" transform="translate(-41.15 48.23) rotate(-21.74)" fill="#f5f1e6"/>
      <path d="M157.5,131.25c0-29.02-23.48-52.5-52.5-52.5s-52.5,23.48-52.5,52.5,23.48,52.5,52.5,52.5,52.5-23.48,52.5-52.5ZM105,177.19c-25.39,0-45.94-20.55-45.94-45.94s20.55-45.94,45.94-45.94,45.94,20.55,45.94,45.94-20.55,45.94-45.94,45.94ZM144.37,131.25c0-21.76-17.61-39.38-39.37-39.38s-39.37,17.61-39.37,39.38,17.61,39.37,39.37,39.37,39.37-17.61,39.37-39.37ZM105,164.06c-18.14,0-32.81-14.68-32.81-32.81s14.68-32.81,32.81-32.81,32.81,14.68,32.81,32.81-14.68,32.81-32.81,32.81ZM131.25,131.25c0-14.51-11.74-26.25-26.25-26.25s-26.25,11.74-26.25,26.25,11.74,26.25,26.25,26.25,26.25-11.74,26.25-26.25ZM105,150.94c-10.88,0-19.69-8.81-19.69-19.69s8.81-19.69,19.69-19.69,19.69,8.81,19.69,19.69-8.81,19.69-19.69,19.69ZM118.12,131.25c0-7.25-5.87-13.12-13.12-13.12s-13.12,5.87-13.12,13.12,5.87,13.12,13.12,13.12,13.12-5.87,13.12-13.12ZM105,137.81c-3.63,0-6.56-2.94-6.56-6.56s2.94-6.56,6.56-6.56,6.56,2.94,6.56,6.56-2.94,6.56-6.56,6.56Z" fill="#e1d191"/>
    </g>
    <circle cx="0" cy="131.25" r="52.5" transform="translate(-92.81 38.44) rotate(-45)" fill="#f5f1e6"/>
    <path d="M52.5,131.25C52.5,102.23,29.02,78.75,0,78.75s-52.5,23.48-52.5,52.5S-29.02,183.75,0,183.75s52.5-23.48,52.5-52.5ZM0,177.19c-25.39,0-45.94-20.55-45.94-45.94S-25.39,85.31,0,85.31s45.94,20.55,45.94,45.94S25.39,177.19,0,177.19ZM39.37,131.25C39.37,109.49,21.76,91.87,0,91.87s-39.37,17.61-39.37,39.38S-21.76,170.62,0,170.62s39.38-17.61,39.38-39.37ZM0,164.06c-18.14,0-32.81-14.68-32.81-32.81S-18.14,98.44,0,98.44s32.81,14.68,32.81,32.81S18.14,164.06,0,164.06ZM26.25,131.25C26.25,116.74,14.51,105,0,105s-26.25,11.74-26.25,26.25S-14.51,157.5,0,157.5s26.25-11.74,26.25-26.25ZM0,150.94c-10.88,0-19.69-8.81-19.69-19.69S-10.88,111.56,0,111.56s19.69,8.81,19.69,19.69S10.88,150.94,0,150.94ZM13.12,131.25C13.12,124,7.25,118.12,0,118.12s-13.12,5.87-13.12,13.12S-7.25,144.37,0,144.37s13.12-5.87,13.12-13.12ZM0,137.81c-3.63,0-6.56-2.94-6.56-6.56S-3.63,124.69,0,124.69s6.56,2.94,6.56,6.56S3.63,137.81,0,137.81Z" fill="#e1d191"/>
  </g>
</svg>